<?xml version="1.0" encoding="UTF-8" standalone="no"?>
<!-- Created with Inkscape (http://www.inkscape.org/) -->

<svg
   width="512"
   height="512"
   viewBox="0 0 135.46666 135.46667"
   version="1.1"
   id="svg1"
   xml:space="preserve"
   inkscape:version="1.4.2 (f4327f4, 2025-05-13)"
   sodipodi:docname="favicon.svg"
   inkscape:export-filename="NIC-Icone.png"
   inkscape:export-xdpi="96"
   inkscape:export-ydpi="96"
   inkscape:export-batch-path="favicon.svg"
   inkscape:export-batch-name=""
   xmlns:inkscape="http://www.inkscape.org/namespaces/inkscape"
   xmlns:sodipodi="http://sodipodi.sourceforge.net/DTD/sodipodi-0.dtd"
   xmlns="http://www.w3.org/2000/svg"
   xmlns:svg="http://www.w3.org/2000/svg"><sodipodi:namedview
     id="namedview1"
     pagecolor="#ffffff"
     bordercolor="#000000"
     borderopacity="0.25"
     inkscape:showpageshadow="2"
     inkscape:pageopacity="0.0"
     inkscape:pagecheckerboard="false"
     inkscape:deskcolor="#d1d1d1"
     inkscape:document-units="px"
     showborder="true"
     labelstyle="default"
     inkscape:zoom="0.21736812"
     inkscape:cx="-310.53312"
     inkscape:cy="-565.86035"
     inkscape:window-width="1920"
     inkscape:window-height="996"
     inkscape:window-x="1358"
     inkscape:window-y="-8"
     inkscape:window-maximized="1"
     inkscape:current-layer="layer1" /><defs
     id="defs1"><clipPath
       clipPathUnits="userSpaceOnUse"
       id="clipPath70"><path
         id="path70"
         style="fill:#000000;stroke-width:1"
         d="m -176.08784,66.261649 c -4.14735,-2.468618 -9.88449,-5.880016 -12.74922,-7.580884 -3.46474,-2.057117 -5.25734,-3.273968 -5.3542,-3.634542 -0.22238,-0.827865 -0.17257,-30.660794 0.0518,-31.01347 0.10808,-0.169902 0.90993,-0.718164 1.78189,-1.21836 0.87195,-0.500196 3.66727,-2.117357 6.21182,-3.593691 2.54456,-1.476334 4.83909,-2.684244 5.09898,-2.684244 0.43372,0 11.28412,6.027089 12.96258,7.200349 l 0.72761,0.508601 v -8.72784 -8.7278393 l 2.3151,-1.2556765 c 1.27331,-0.6906218 3.96664,-2.1885452 5.98519,-3.3287184 2.01854,-1.1401732 3.95591,-2.07304213 4.30525,-2.07304213 0.59155,0 11.04142,5.68442763 12.06685,6.56401373 0.43463,0.3728077 0.4628,1.8510845 0.45941,24.1025146 -0.002,13.037939 -0.0734,23.965574 -0.1587,24.28363 -0.11343,0.422979 -3.54643,2.607966 -12.78299,8.135937 -6.94535,4.15671 -12.7973,7.551807 -13.00433,7.544657 -0.20702,-0.0071 -3.76969,-2.032775 -7.91703,-4.501395 z M -184.5378,9.6582213 c -1.6643,-1.0069888 -3.12594,-2.0094781 -3.2481,-2.2277538 -0.12215,-0.218276 -0.1892,-2.2095452 -0.149,-4.4250427 l 0.0731,-4.0281772 2.98921,-1.8037278 c 1.64406,-0.9920504 3.28723,-1.8037281 3.65148,-1.8037281 0.36424,0 2.08496,0.8418801 3.82381,1.8708449 l 3.16154,1.87084487 V 3.4285822 7.7456831 l -3.12557,1.881846 c -1.71906,1.0350149 -3.35617,1.8772859 -3.63802,1.8717139 -0.28185,-0.0056 -1.87415,-0.834033 -3.53845,-1.8410217 z m 15.59371,-17.5451199 -2.24896,-1.3735182 -0.0744,-3.0904752 -0.0744,-3.090476 1.13272,-0.76646 c 0.62299,-0.421553 1.81671,-1.152586 2.65271,-1.624517 l 1.51999,-0.858056 2.58105,1.557808 2.58105,1.557808 v 3.138015 3.1380148 l -2.24896,1.3883801 c -1.23693,0.7636089 -2.54661,1.3903182 -2.91042,1.3926873 -0.3638,0.00238 -1.67348,-0.6137759 -2.91041,-1.3692108 z" /></clipPath><filter
       inkscape:collect="always"
       style="color-interpolation-filters:sRGB"
       id="filter34"
       x="-0.061029949"
       y="-0.058695476"
       width="1.1220599"
       height="1.117391"><feGaussianBlur
         inkscape:collect="always"
         stdDeviation="1.2892858"
         id="feGaussianBlur34" /></filter><filter
       inkscape:collect="always"
       style="color-interpolation-filters:sRGB"
       id="filter31"
       x="-0.13523523"
       y="-0.13330329"
       width="1.2704705"
       height="1.2666066"><feGaussianBlur
         inkscape:collect="always"
         stdDeviation="2.2340988"
         id="feGaussianBlur31" /></filter><filter
       inkscape:collect="always"
       style="color-interpolation-filters:sRGB"
       id="filter32"
       x="-0.13254587"
       y="-0.12747582"
       width="1.2650917"
       height="1.2549516"><feGaussianBlur
         inkscape:collect="always"
         stdDeviation="2.2340988"
         id="feGaussianBlur32" /></filter><filter
       inkscape:collect="always"
       style="color-interpolation-filters:sRGB"
       id="filter33"
       x="-0.15068935"
       y="-0.049923875"
       width="1.3013787"
       height="1.0998478"><feGaussianBlur
         inkscape:collect="always"
         stdDeviation="1.0286753"
         id="feGaussianBlur33" /></filter></defs><g
     inkscape:label="Camada 1"
     inkscape:groupmode="layer"
     id="layer1"><text
       xml:space="preserve"
       style="font-style:normal;font-variant:normal;font-weight:800;font-stretch:normal;font-size:23.1685px;line-height:1;font-family:Montserrat;-inkscape-font-specification:'Montserrat Ultra-Bold';text-align:start;letter-spacing:0px;writing-mode:lr-tb;direction:ltr;text-anchor:start;fill:none;fill-opacity:1;stroke:none;stroke-width:0.965353;stroke-linecap:round;stroke-linejoin:round;paint-order:markers stroke fill"
       x="-17.585545"
       y="-118.64753"
       id="text23-4"
       transform="scale(1,-1)"><tspan
         sodipodi:role="line"
         style="font-style:normal;font-variant:normal;font-weight:900;font-stretch:normal;line-height:1;font-family:Montserrat;-inkscape-font-specification:'Montserrat Heavy';text-align:start;text-anchor:start;fill:none;fill-opacity:1;stroke-width:0.965353"
         x="-17.585545"
         y="-118.64753"
         id="tspan23-1" /></text><g
       id="logo"><rect
         style="fill:#ffffff;fill-opacity:1;stroke:none;stroke-width:0.517947;stroke-linecap:round;stroke-linejoin:round;stroke-dasharray:none;stroke-opacity:1;paint-order:markers stroke fill"
         id="rect251"
         width="135.46666"
         height="135.46666"
         x="1.9297925e-06"
         y="1.0851269e-06"
         rx="0"
         ry="0" /><text
         xml:space="preserve"
         style="font-style:normal;font-variant:normal;font-weight:800;font-stretch:normal;font-size:23.1685px;line-height:1;font-family:Montserrat;-inkscape-font-specification:'Montserrat Ultra-Bold';text-align:start;letter-spacing:0px;writing-mode:lr-tb;direction:ltr;text-anchor:start;opacity:0.75;fill:#0066ff;fill-opacity:1;stroke:none;stroke-width:0.965353;stroke-linecap:round;stroke-linejoin:round;paint-order:markers stroke fill;filter:url(#filter34)"
         x="26.70326"
         y="65.068802"
         id="text32"><tspan
           sodipodi:role="line"
           style="font-style:normal;font-variant:normal;font-weight:900;font-stretch:normal;line-height:1;font-family:Montserrat;-inkscape-font-specification:'Montserrat Heavy';text-align:start;text-anchor:start;fill:#0066ff;fill-opacity:1;stroke-width:0.965353"
           x="26.70326"
           y="65.068802"
           id="tspan32" /></text><g
         id="g35"
         transform="translate(-0.26657534)"><g
           id="g34"><path
             id="path32"
             style="font-weight:900;font-size:60.2335px;line-height:1;font-family:Montserrat;-inkscape-font-specification:'Montserrat Heavy';letter-spacing:0px;opacity:0.8;fill:#ff2a7f;stroke-width:2.50972;stroke-linecap:round;stroke-linejoin:round;paint-order:markers stroke fill;filter:url(#filter33)"
             d="M 61.595812,90.694527 V 57.746801 h 13.612771 v 32.947726 z m 6.806386,-35.598 q -3.734477,0 -5.963117,-1.987705 -2.228639,-1.987706 -2.228639,-4.939147 0,-2.951442 2.228639,-4.939147 2.22864,-1.987706 5.963117,-1.987706 3.734477,0 5.963116,1.867239 2.22864,1.867238 2.22864,4.81868 0,3.132142 -2.22864,5.180081 -2.228639,1.987705 -5.963116,1.987705 z" /><path
             style="font-weight:900;font-size:57.4612px;line-height:1;font-family:Montserrat;-inkscape-font-specification:'Montserrat Heavy';letter-spacing:0px;opacity:0.8;fill:#0066ff;fill-opacity:1;stroke-width:2.39421;stroke-linecap:round;stroke-linejoin:round;paint-order:markers stroke fill;filter:url(#filter31)"
             d="M 17.539548,90.694181 V 50.471337 h 0.4328 c 10.31362,0 10.42286,0.03281 16.68914,7.531221 l 14.48172,16.947253 h -5.17151 V 50.471337 h 13.21608 v 40.222844 h -1.00915 c -10.20045,0 -10.15307,0.0183 -16.75202,-7.88978 l -13.84249,-16.58869 h 5.17151 v 24.47847 z"
             id="path30" /><path
             style="font-weight:900;font-size:57.4612px;line-height:1;font-family:Montserrat;-inkscape-font-specification:'Montserrat Heavy';letter-spacing:0px;opacity:0.8;fill:#0066ff;fill-opacity:1;stroke-width:2.39421;stroke-linecap:round;stroke-linejoin:round;paint-order:markers stroke fill;filter:url(#filter32)"
             d="m 100.41745,91.613561 q -4.826742,0 -8.963952,-1.49399 -4.07974,-1.55145 -7.12519,-4.36705 -2.98798,-2.8156 -4.65436,-6.6655 -1.66637,-3.8499 -1.66637,-8.50426 0,-4.65436 1.66637,-8.50426 1.66638,-3.849903 4.65436,-6.665503 3.04545,-2.815597 7.12519,-4.309588 4.13721,-1.551452 8.963952,-1.551452 5.9185,0 10.45794,2.068603 4.59689,2.068603 7.58488,5.975967 l -8.56172,7.642343 q -1.7813,-2.24099 -3.96483,-3.44767 -2.12606,-1.26415 -4.82674,-1.26415 -2.126062,0 -3.849902,0.68953 -1.72383,0.68954 -2.98798,2.01115 -1.20669,1.3216 -1.89622,3.21782 -0.68953,1.83876 -0.68953,4.13721 0,2.29845 0.68953,4.19467 0.68953,1.83876 1.89622,3.16036 1.26415,1.32161 2.98798,2.01115 1.72384,0.68953 3.849902,0.68953 2.70068,0 4.82674,-1.20669 2.18353,-1.26414 3.96483,-3.50513 l 8.56172,7.64234 q -2.98799,3.8499 -7.58488,5.97597 -4.53944,2.0686 -10.45794,2.0686 z"
             id="path29" /></g><g
           id="g33"><path
             style="font-weight:900;font-size:57.4612px;line-height:1;font-family:Montserrat;-inkscape-font-specification:'Montserrat Heavy';letter-spacing:0px;fill:#0066ff;fill-opacity:1;stroke-width:2.39421;stroke-linecap:round;stroke-linejoin:round;paint-order:markers stroke fill"
             d="m 100.41745,91.613561 q -4.826742,0 -8.963952,-1.49399 -4.07974,-1.55145 -7.12519,-4.36705 -2.98798,-2.8156 -4.65436,-6.6655 -1.66637,-3.8499 -1.66637,-8.50426 0,-4.65436 1.66637,-8.50426 1.66638,-3.849903 4.65436,-6.665503 3.04545,-2.815597 7.12519,-4.309588 4.13721,-1.551452 8.963952,-1.551452 5.9185,0 10.45794,2.068603 4.59689,2.068603 7.58488,5.975967 l -8.56172,7.642343 q -1.7813,-2.24099 -3.96483,-3.44767 -2.12606,-1.26415 -4.82674,-1.26415 -2.126062,0 -3.849902,0.68953 -1.72383,0.68954 -2.98798,2.01115 -1.20669,1.3216 -1.89622,3.21782 -0.68953,1.83876 -0.68953,4.13721 0,2.29845 0.68953,4.19467 0.68953,1.83876 1.89622,3.16036 1.26415,1.32161 2.98798,2.01115 1.72384,0.68953 3.849902,0.68953 2.70068,0 4.82674,-1.20669 2.18353,-1.26414 3.96483,-3.50513 l 8.56172,7.64234 q -2.98799,3.8499 -7.58488,5.97597 -4.53944,2.0686 -10.45794,2.0686 z"
             id="path25-7" /><path
             style="font-weight:900;font-size:57.4612px;line-height:1;font-family:Montserrat;-inkscape-font-specification:'Montserrat Heavy';letter-spacing:0px;fill:#0066ff;fill-opacity:1;stroke-width:2.39421;stroke-linecap:round;stroke-linejoin:round;paint-order:markers stroke fill"
             d="M 17.539548,90.694181 V 50.471337 h 0.4328 c 10.31362,0 10.42286,0.03281 16.68914,7.531221 l 14.48172,16.947253 h -5.17151 V 50.471337 h 13.21608 v 40.222844 h -1.00915 c -10.20045,0 -10.15307,0.0183 -16.75202,-7.88978 l -13.84249,-16.58869 h 5.17151 v 24.47847 z"
             id="path26-2" /><path
             id="text25-1"
             style="font-weight:900;font-size:60.2335px;line-height:1;font-family:Montserrat;-inkscape-font-specification:'Montserrat Heavy';letter-spacing:0px;fill:#ff2a7f;stroke-width:2.50972;stroke-linecap:round;stroke-linejoin:round;paint-order:markers stroke fill"
             d="M 61.595812,90.694527 V 57.746801 h 13.612771 v 32.947726 z m 6.806386,-35.598 q -3.734477,0 -5.963117,-1.987705 -2.228639,-1.987706 -2.228639,-4.939147 0,-2.951442 2.228639,-4.939147 2.22864,-1.987706 5.963117,-1.987706 3.734477,0 5.963116,1.867239 2.22864,1.867238 2.22864,4.81868 0,3.132142 -2.22864,5.180081 -2.228639,1.987705 -5.963116,1.987705 z" /></g><rect
           style="fill:none;fill-opacity:1;stroke-width:0.972566;stroke-linecap:round;stroke-linejoin:round;paint-order:markers stroke fill"
           id="rect26-7"
           width="106.37785"
           height="64.328941"
           x="14.544407"
           y="35.568859" /></g></g><text
       xml:space="preserve"
       style="font-style:normal;font-variant:normal;font-weight:800;font-stretch:normal;font-size:23.1685px;line-height:1;font-family:Montserrat;-inkscape-font-specification:'Montserrat Ultra-Bold';text-align:start;letter-spacing:0px;writing-mode:lr-tb;direction:ltr;text-anchor:start;fill:#0066ff;fill-opacity:1;stroke:none;stroke-width:0.965351;stroke-linecap:round;stroke-linejoin:round;paint-order:markers stroke fill"
       x="26.703259"
       y="65.068802"
       id="text26"><tspan
         sodipodi:role="line"
         style="font-style:normal;font-variant:normal;font-weight:900;font-stretch:normal;line-height:1;font-family:Montserrat;-inkscape-font-specification:'Montserrat Heavy';text-align:start;text-anchor:start;fill:#0066ff;fill-opacity:1;stroke-width:0.965351"
         x="26.703259"
         y="65.068802"
         id="tspan26" /></text><text
       xml:space="preserve"
       style="font-style:normal;font-variant:normal;font-weight:900;font-stretch:normal;font-size:6.35px;line-height:1;font-family:Montserrat;-inkscape-font-specification:'Montserrat Heavy';text-align:end;letter-spacing:0px;writing-mode:lr-tb;direction:ltr;text-anchor:end;fill:#ff2a7f;fill-opacity:1;stroke-width:0.529167;stroke-linecap:round;stroke-linejoin:round;paint-order:markers stroke fill"
       x="75.315063"
       y="-137.39293"
       id="text13"><tspan
         sodipodi:role="line"
         id="tspan13"
         style="stroke-width:0.529167"
         x="75.315063"
         y="-137.39293" /></text></g></svg>
