<?xml version="1.0" encoding="UTF-8" standalone="no"?>
<!-- Created with Inkscape (http://www.inkscape.org/) -->

<svg
   width="500"
   height="500"
   viewBox="0 0 132.29166 132.29167"
   version="1.1"
   id="svg1"
   xml:space="preserve"
   inkscape:version="1.4.2 (f4327f4, 2025-05-13)"
   sodipodi:docname="favicon.svg"
   inkscape:export-filename="NIC-Icone.png"
   inkscape:export-xdpi="96"
   inkscape:export-ydpi="96"
   inkscape:export-batch-path="nic-icon"
   inkscape:export-batch-name=""
   xmlns:inkscape="http://www.inkscape.org/namespaces/inkscape"
   xmlns:sodipodi="http://sodipodi.sourceforge.net/DTD/sodipodi-0.dtd"
   xmlns="http://www.w3.org/2000/svg"
   xmlns:svg="http://www.w3.org/2000/svg"><sodipodi:namedview
     id="namedview1"
     pagecolor="#ffffff"
     bordercolor="#000000"
     borderopacity="0.25"
     inkscape:showpageshadow="2"
     inkscape:pageopacity="0.0"
     inkscape:pagecheckerboard="false"
     inkscape:deskcolor="#d1d1d1"
     inkscape:document-units="px"
     showborder="true"
     labelstyle="default"
     inkscape:zoom="0.86947252"
     inkscape:cx="11.501226"
     inkscape:cy="196.67097"
     inkscape:window-width="1920"
     inkscape:window-height="996"
     inkscape:window-x="1358"
     inkscape:window-y="-8"
     inkscape:window-maximized="1"
     inkscape:current-layer="layer1" /><defs
     id="defs1"><clipPath
       clipPathUnits="userSpaceOnUse"
       id="clipPath70"><path
         id="path70"
         style="fill:#000000;stroke-width:1"
         d="m -176.08784,66.261649 c -4.14735,-2.468618 -9.88449,-5.880016 -12.74922,-7.580884 -3.46474,-2.057117 -5.25734,-3.273968 -5.3542,-3.634542 -0.22238,-0.827865 -0.17257,-30.660794 0.0518,-31.01347 0.10808,-0.169902 0.90993,-0.718164 1.78189,-1.21836 0.87195,-0.500196 3.66727,-2.117357 6.21182,-3.593691 2.54456,-1.476334 4.83909,-2.684244 5.09898,-2.684244 0.43372,0 11.28412,6.027089 12.96258,7.200349 l 0.72761,0.508601 v -8.72784 -8.7278393 l 2.3151,-1.2556765 c 1.27331,-0.6906218 3.96664,-2.1885452 5.98519,-3.3287184 2.01854,-1.1401732 3.95591,-2.07304213 4.30525,-2.07304213 0.59155,0 11.04142,5.68442763 12.06685,6.56401373 0.43463,0.3728077 0.4628,1.8510845 0.45941,24.1025146 -0.002,13.037939 -0.0734,23.965574 -0.1587,24.28363 -0.11343,0.422979 -3.54643,2.607966 -12.78299,8.135937 -6.94535,4.15671 -12.7973,7.551807 -13.00433,7.544657 -0.20702,-0.0071 -3.76969,-2.032775 -7.91703,-4.501395 z M -184.5378,9.6582213 c -1.6643,-1.0069888 -3.12594,-2.0094781 -3.2481,-2.2277538 -0.12215,-0.218276 -0.1892,-2.2095452 -0.149,-4.4250427 l 0.0731,-4.0281772 2.98921,-1.8037278 c 1.64406,-0.9920504 3.28723,-1.8037281 3.65148,-1.8037281 0.36424,0 2.08496,0.8418801 3.82381,1.8708449 l 3.16154,1.87084487 V 3.4285822 7.7456831 l -3.12557,1.881846 c -1.71906,1.0350149 -3.35617,1.8772859 -3.63802,1.8717139 -0.28185,-0.0056 -1.87415,-0.834033 -3.53845,-1.8410217 z m 15.59371,-17.5451199 -2.24896,-1.3735182 -0.0744,-3.0904752 -0.0744,-3.090476 1.13272,-0.76646 c 0.62299,-0.421553 1.81671,-1.152586 2.65271,-1.624517 l 1.51999,-0.858056 2.58105,1.557808 2.58105,1.557808 v 3.138015 3.1380148 l -2.24896,1.3883801 c -1.23693,0.7636089 -2.54661,1.3903182 -2.91042,1.3926873 -0.3638,0.00238 -1.67348,-0.6137759 -2.91041,-1.3692108 z" /></clipPath><filter
       inkscape:collect="always"
       style="color-interpolation-filters:sRGB"
       id="filter144-2-3-4"
       x="-0.18448789"
       y="-0.10266091"
       width="1.3689758"
       height="1.2053218"><feGaussianBlur
         inkscape:collect="always"
         stdDeviation="2.977496"
         id="feGaussianBlur144-3-4-0" /></filter><filter
       inkscape:collect="always"
       style="color-interpolation-filters:sRGB"
       id="filter143-2-4-7"
       x="-0.57057357"
       y="-0.10783122"
       width="2.1411471"
       height="1.2156624"><feGaussianBlur
         inkscape:collect="always"
         stdDeviation="2.977496"
         id="feGaussianBlur143-2-6-6" /></filter><filter
       inkscape:collect="always"
       style="color-interpolation-filters:sRGB"
       id="filter142-1-0-3"
       x="-0.13453751"
       y="-0.10783122"
       width="1.269075"
       height="1.2156624"><feGaussianBlur
         inkscape:collect="always"
         stdDeviation="2.977496"
         id="feGaussianBlur142-6-66-6" /></filter></defs><g
     inkscape:label="Camada 1"
     inkscape:groupmode="layer"
     id="layer1"><g
       id="g257"
       transform="matrix(4.9975104,0,0,4.9975104,131.45398,83.31664)"><rect
         style="fill:#ffffff;fill-opacity:1;stroke:none;stroke-width:0.101212;stroke-linecap:round;stroke-linejoin:round;stroke-dasharray:none;stroke-opacity:1;paint-order:markers stroke fill"
         id="rect251"
         width="26.471514"
         height="26.471516"
         x="-26.303892"
         y="-16.671629"
         rx="13.235757"
         ry="13.235757" /><g
         id="g253"
         transform="matrix(0.18111045,0,0,0.18111045,-26.816367,-6.7457663)"><path
           style="font-weight:bold;font-size:8.29771px;line-height:1.1;font-family:'Levenim MT';-inkscape-font-specification:'Levenim MT Bold';letter-spacing:0px;opacity:0.591592;fill:#0066ff;fill-opacity:1;stroke:#3771c8;stroke-width:1.26141;stroke-linecap:round;stroke-linejoin:round;stroke-dasharray:none;stroke-opacity:1;paint-order:markers stroke fill;filter:url(#filter144-2-3-4)"
           d="m 125.35177,29.857691 c -6.99454,0 -13.51331,1.703413 -19.56002,5.10262 -12.583629,7.059905 -18.878407,17.945926 -18.878407,32.654193 0,11.210923 3.561475,20.34162 10.686724,27.401525 7.158043,7.060031 16.346933,10.592941 27.557853,10.592941 1.33617,0 2.63628,-0.0484 3.9083,-0.15003 V 92.189567 c -1.20401,0.152465 -2.44181,0.23113 -3.71445,0.23113 -4.67385,0 -8.91986,-1.064862 -12.74395,-3.189139 -8.00787,-4.445187 -12.01247,-11.637355 -12.01247,-21.573591 0,-6.92922 2.35322,-12.728715 7.0599,-17.402728 4.70671,-4.706563 10.5235,-7.059783 17.45271,-7.059783 1.34244,0 2.65997,0.09681 3.95826,0.281945 v -13.4694 c -1.2171,-0.0968 -2.45413,-0.150034 -3.71445,-0.150034 z"
           transform="matrix(0.80058536,0,0,0.80058536,21.684446,-35.950752)"
           id="path251" /><path
           style="font-weight:bold;font-size:8.29771px;line-height:1.1;font-family:'Levenim MT';-inkscape-font-specification:'Levenim MT Bold';letter-spacing:0px;opacity:0.591592;fill:#ff2a7f;fill-opacity:1;stroke:#3771c8;stroke-width:1.26141;stroke-linecap:round;stroke-linejoin:round;stroke-dasharray:none;stroke-opacity:1;paint-order:markers stroke fill;filter:url(#filter143-2-4-7)"
           d="M 83.512686,103.79375 H 69.883076 V 31.674609 h 13.62961 z"
           transform="matrix(0.80058536,0,0,0.80058536,21.684446,-35.950752)"
           id="path252" /><path
           style="font-weight:bold;font-size:8.29771px;line-height:1.1;font-family:'Levenim MT';-inkscape-font-specification:'Levenim MT Bold';letter-spacing:0px;opacity:0.591592;fill:#0066ff;fill-opacity:1;stroke:#3771c8;stroke-width:1.26141;stroke-linecap:round;stroke-linejoin:round;stroke-dasharray:none;stroke-opacity:1;paint-order:markers stroke fill;filter:url(#filter142-1-0-3)"
           d="m 64.203617,103.79375 h -4.578659 c -5.725685,0 -10.700641,-2.72822 -13.069711,-6.831686 L 20.128069,56.482354 V 103.79375 H 6.4004417 V 31.674609 h 3.9970993 c 7.024813,0 10.629246,2.281343 14.141349,7.669174 l 25.937099,39.789246 v -47.45842 h 13.727628 z"
           transform="matrix(0.80058536,0,0,0.80058536,21.684446,-35.950752)"
           id="path253" /></g><g
         id="g256"
         transform="matrix(0.18111045,0,0,0.18111045,-26.816367,-6.7457663)"><path
           style="font-weight:bold;font-size:8.29771px;line-height:1.1;font-family:'Levenim MT';-inkscape-font-specification:'Levenim MT Bold';letter-spacing:0px;fill:#0066ff;fill-opacity:1;stroke:none;stroke-width:1.00987;stroke-linecap:round;stroke-linejoin:round;stroke-dasharray:none;stroke-opacity:1;paint-order:markers stroke fill"
           d="m 122.03923,-12.047124 c -5.59973,0 -10.81856,1.363728 -15.65947,4.085083 -10.074263,5.652057 -15.11377,14.367246 -15.11377,26.142469 0,8.975301 2.851265,16.285203 8.555634,21.93726 5.730626,5.652155 13.087116,8.480551 22.062416,8.480551 1.06972,0 2.11056,-0.03872 3.12892,-0.120106 V 37.854864 c -0.96391,0.122061 -1.95487,0.185039 -2.97373,0.185039 -3.74182,0 -7.14111,-0.852513 -10.20262,-2.553178 -6.41098,-3.558751 -9.61701,-9.316696 -9.61701,-17.271501 0,-5.547432 1.88396,-10.190423 5.65205,-13.932369 3.76813,-3.768006 8.42497,-5.651959 13.97239,-5.651959 1.07474,0 2.12953,0.0775 3.16892,0.22572 v -10.783404 c -0.97439,-0.07749 -1.96473,-0.120115 -2.97373,-0.120115 z"
           id="path254" /><path
           style="font-weight:bold;font-size:8.29771px;line-height:1.1;font-family:'Levenim MT';-inkscape-font-specification:'Levenim MT Bold';letter-spacing:0px;fill:#ff2a7f;fill-opacity:1;stroke:none;stroke-width:1.00987;stroke-linecap:round;stroke-linejoin:round;stroke-dasharray:none;stroke-opacity:1;paint-order:markers stroke fill"
           d="M 88.543473,47.145 H 77.631807 v -57.737526 h 10.911666 z"
           id="path255" /><path
           style="font-weight:bold;font-size:8.29771px;line-height:1.1;font-family:'Levenim MT';-inkscape-font-specification:'Levenim MT Bold';letter-spacing:0px;fill:#0066ff;fill-opacity:1;stroke:none;stroke-width:1.00987;stroke-linecap:round;stroke-linejoin:round;stroke-dasharray:none;stroke-opacity:1;paint-order:markers stroke fill"
           d="m 73.084915,47.145 h -3.665607 c -4.5839,0 -8.566777,-2.18417 -10.46342,-5.469345 L 37.798677,9.268192 V 47.145 H 26.80854 v -57.737526 h 3.200018 c 5.623964,0 8.509619,1.82641 11.321358,6.139829 L 62.094777,27.40199 v -37.994516 h 10.990138 z"
           id="path256" /></g></g></g></svg>
